<svg xmlns="http://www.w3.org/2000/svg" width="32" height="32" viewBox="0 0 32 32">
  <path d="M16.0004,15.2928932 L23.6468466,7.64644661 C23.8421088,7.45118446 24.1586912,7.45118446 24.3539534,7.64644661 C24.5492155,7.84170876 24.5492155,8.15829124 24.3539534,8.35355339 L16.7075068,16 L24.3539534,23.6464466 C24.5492155,23.8417088 24.5492155,24.1582912 24.3539534,24.3535534 C24.1586912,24.5488155 23.8421088,24.5488155 23.6468466,24.3535534 L16.0004,16.7071068 L8.35395339,24.3535534 C8.15869124,24.5488155 7.84210876,24.5488155 7.64684661,24.3535534 C7.45158446,24.1582912 7.45158446,23.8417088 7.64684661,23.6464466 L15.2932932,16 L7.64684661,8.35355339 C7.45158446,8.15829124 7.45158446,7.84170876 7.64684661,7.64644661 C7.84210876,7.45118446 8.15869124,7.45118446 8.35395339,7.64644661 L16.0004,15.2928932 Z"/>
</svg>
