<svg xmlns="http://www.w3.org/2000/svg" width="32" height="32" viewBox="0 0 32 32">
  <path d="M21.8333333,21.4153215 L21.8333333,24.8725476 C23.3450577,25.1121289 24.5,26.4206664 24.5,28 L24.5,30.6666667 C24.5,30.942809 24.2761424,31.1666667 24,31.1666667 C23.7238576,31.1666667 23.5,30.942809 23.5,30.6666667 L23.5,28 C23.5,26.802809 22.5305243,25.8333333 21.3333333,25.8333333 C20.1361424,25.8333333 19.1666667,26.802809 19.1666667,28 L19.1666667,30.6666667 C19.1666667,30.942809 18.942809,31.1666667 18.6666667,31.1666667 C18.3905243,31.1666667 18.1666667,30.942809 18.1666667,30.6666667 L18.1666667,28 C18.1666667,26.4206664 19.3216089,25.1121289 20.8333333,24.8725476 L20.8333333,21.3333333 C20.8333333,21.2591493 20.8494891,21.1887387 20.8784741,21.1254278 C19.3981794,20.7256382 17.7450518,20.5 16,20.5 C14.2549482,20.5 12.6018206,20.7256382 11.1215259,21.1254278 C11.1505109,21.1887387 11.1666667,21.2591493 11.1666667,21.3333333 L11.1666667,24.8725839 C12.6779928,25.1123085 13.8333333,26.4212321 13.8333333,28 C13.8333333,29.7489017 12.4155684,31.1666667 10.6666667,31.1666667 C8.91776496,31.1666667 7.5,29.7489017 7.5,28 C7.5,26.4212321 8.65534051,25.1123085 10.1666667,24.8725839 L10.1666667,21.4153215 C6.77303685,22.5648544 4.5,24.6708683 4.5,27 L4.5,30.6666667 C4.5,30.942809 4.27614237,31.1666667 4,31.1666667 C3.72385763,31.1666667 3.5,30.942809 3.5,30.6666667 L3.5,27 C3.5,22.8013624 9.15985016,19.5 16,19.5 C22.8401498,19.5 28.5,22.8013624 28.5,27 L28.5,30.6666667 C28.5,30.942809 28.2761424,31.1666667 28,31.1666667 C27.7238576,31.1666667 27.5,30.942809 27.5,30.6666667 L27.5,27 C27.5,24.6708683 25.2269632,22.5648544 21.8333333,21.4153215 Z M10.6666667,30.1666667 C11.8632836,30.1666667 12.8333333,29.196617 12.8333333,28 C12.8333333,26.803383 11.8632836,25.8333333 10.6666667,25.8333333 C9.47004971,25.8333333 8.5,26.803383 8.5,28 C8.5,29.196617 9.47004971,30.1666667 10.6666667,30.1666667 Z M16,15.1666667 C12.0419593,15.1666667 8.83333333,11.9580407 8.83333333,8 C8.83333333,4.04195929 12.0419593,0.833333333 16,0.833333333 C19.9580407,0.833333333 23.1666667,4.04195929 23.1666667,8 C23.1666667,11.9580407 19.9580407,15.1666667 16,15.1666667 Z M16,14.1666667 C19.405756,14.1666667 22.1666667,11.405756 22.1666667,8 C22.1666667,4.59424404 19.405756,1.83333333 16,1.83333333 C12.594244,1.83333333 9.83333333,4.59424404 9.83333333,8 C9.83333333,11.405756 12.594244,14.1666667 16,14.1666667 Z"/>
</svg>
