<svg xmlns="http://www.w3.org/2000/svg" width="48" height="32" viewBox="0 0 48 32">
  <path fill-rule="evenodd" d="M5.10739222,4 L10.3021424,4 L10.3021424,7.97920729 L15.0837567,7.97920729 L15.0837567,12.5046127 L10.3021424,12.5046127 L10.3021424,17.2577386 C10.3021424,19.1663995 12.2082058,19.6822716 13.8897291,18.6505273 C14.9406531,20.3528614 16.1418696,22.6156192 16.1418696,22.6156192 C16.1418696,22.6156192 14.2431074,23.9122471 11.0903354,23.9638564 C7.93756335,24.0154656 5.10739222,22.3131315 5.10739222,17.9283283 L5.10739222,12.5046127 L2,12.5046127 L2,7.97920729 L5.10739222,7.97920729 L5.10739222,4 Z M24.9767824,8.99124809 L29.4518645,8.99124809 L29.4518645,23.9649924 L24.9767824,23.9649924 L24.9767824,23.2394419 C24.0285068,23.6874637 22.9709987,23.9392724 21.8547588,23.9392724 C17.7807889,23.9392724 14.4781202,20.6045481 14.4781202,16.4910364 C14.4781202,12.3775246 17.7807889,9.04280036 21.8547588,9.04280036 C22.9709987,9.04280036 24.0285068,9.29449673 24.9767824,9.74263085 L24.9767824,8.99124809 Z M21.8547588,19.5378991 C23.5316215,19.5378991 24.8910204,18.1653058 24.8910204,16.4722799 C24.8910204,14.7791416 23.5316215,13.4065484 21.8547588,13.4065484 C20.1778961,13.4065484 18.8184972,14.7791416 18.8184972,16.4722799 C18.8184972,18.1653058 20.1778961,19.5378991 21.8547588,19.5378991 Z M38.6458877,9.10690668 C42.708209,9.10690668 46.0013236,12.38333 46.0013236,16.4249252 C46.0013236,20.4665205 42.708209,23.7429438 38.6458877,23.7429438 C37.5662252,23.7429438 36.5419102,23.509552 35.6183075,23.0939712 L35.6183075,30.6200008 L31.1561317,30.6200008 L31.1561317,9.0562557 L35.6183075,9.0562557 L35.6183075,9.75587928 C36.5419102,9.34018811 37.5662252,9.10690668 38.6458877,9.10690668 Z M38.534971,19.4185196 C40.2069282,19.4185196 41.5624403,18.0699235 41.5624403,16.4064967 C41.5624403,14.7429595 40.2069282,13.3943633 38.534971,13.3943633 C36.8629029,13.3943633 35.5073909,14.7429595 35.5073909,16.4064967 C35.5073909,18.0699235 36.8629029,19.4185196 38.534971,19.4185196 Z"/>
</svg>
